<?xml version="1.0" encoding="utf-8"?>
<!-- Generator: Adobe Illustrator 25.0.1, SVG Export Plug-In . SVG Version: 6.00 Build 0)  -->
<svg version="1.0" id="Layer_1" xmlns="http://www.w3.org/2000/svg" xmlns:xlink="http://www.w3.org/1999/xlink" x="0px" y="0px"
	 viewBox="0 0 681.3 479.3" style="enable-background:new 0 0 681.3 479.3;" xml:space="preserve">
<style type="text/css">
	.st0{fill-rule:evenodd;clip-rule:evenodd;}
</style>
<g>
	<path class="st0" d="M344,240l2.6-5.1l14.2-0.4c2.4-0.2,4.5-0.8,6.2-1.9c0.9-0.9,0.9-1.8,0.3-3l-2.6-3.3l-3.4-1.9l-28.7,2
		c-1.5,0-2.2,0.4-2.4,1.1l0.7,2.1l1.1,1.8c0.5,0.4,1,0.7,2.2,0.8l2.8,0.6c0.8,0.1,1,0.6,0.8,0.9l-3.3,8.2H333
		c-0.9-0.2-1.4,0.1-1.9,0.7l-0.5,3.1l0.8,3.7c0.2,0.5-0.4,1.5-1.3,3c-0.9,1.4-1.6,3.7-2,6.5c-0.3,2.7-0.2,4.7,0.5,6.2l3.8,4.9
		c1.5,1.4,3.6,1.9,6.4,1.5l9-2.3l8.3-3.8l4.2-2.5c0.8-0.9,1-1.7,0.9-2.6c-0.2-1.1-1.1-2.4-2.8-3.5l-4-0.3l-12.5,2.3l-3.5,0.1
		l0.2-2.6l1.6-4.3l1.3-2.5l3.2-0.5l12-0.6c1.7-0.1,2.5-0.5,2.6-1l0.2-3l-0.6-2.3l-12.4-0.8C344.7,241,344,240.6,344,240L344,240z"/>
	<path class="st0" d="M376.9,239.3l6.8-10l0.7-4c0-1.3-0.5-2.1-1.4-2.1l-3.5,3l-10.6,14.5c-1.5,2.5-2.5,4.7-2.9,6.5
		c-0.8,2.7-0.9,5.4-0.6,7.7c0.3,2.5,0.8,4.3,1.5,5.7l3.9,5.2l1.6,1.2l-5.1,23.2c-0.7,4.7-0.8,9.4-0.6,14l2.1,2.5l3.9,2.5l3.5,0.3
		c0.4-0.3,0.6-1.9,0.6-4.7l1-12.8c0.7-5.9,2.2-12.9,4.4-21.4l3.2-0.8c2-0.1,4.3-0.9,6.9-2.2l5.6-3.5c2.5-1.7,5-4.4,7.3-8.3
		c2.3-3.8,3.8-9,4.3-15.6c0.1-2-0.2-4.2-0.9-6.6s-1.5-4.2-2.6-5.6c-1.2-1.5-2.5-1.8-4.1-1.1c-6.9,3.8-12.1,7.8-15.5,12
		c-3.3,4.1-5.8,7.9-7.1,11.1l-2.6,5.7c-0.9,0.8-2.1-0.3-3.3-3.1c-0.8-2.3-0.7-4.5,0.3-7.1C374.6,243.1,375.8,241,376.9,239.3
		L376.9,239.3z M403.2,236.6c1.2-0.1,2.1,0.5,2.5,1.6c0.4,1.2,0.4,2.7,0.1,4.3l-1.3,4.1c-2.5,4-4.7,6.8-6.4,8.4l-4.1,3.1l-2.5,1
		l-3.4,0.9c-0.9,0.2-1.4,0-1.6-0.6l2.1-4.2l10.3-15C400.6,238.2,402,237,403.2,236.6L403.2,236.6z"/>
	<path class="st0" d="M418.7,224.2c0.4,1.5,0.4,3.7-0.2,6.6l-8.1,24.5c-1.4,4.3-1.5,7.9-0.6,11c0.9,2.9,2.8,4.9,5.4,6
		c3.3,1.3,6.1,2,8.4,1.8c2.4-0.1,4.3-0.5,5.9-1.1l3.6-2.1l3.5-3.6l1.5-4.1c0.1-1.3-0.3-2.3-0.9-2.8l-5.1,0.1l-5.2,1.6l-2.9,0.6
		l-2.8-0.4c-0.7-0.4-0.9-1.3-0.7-3.1l4.8-17.3c0.9-4,1.2-7.6,0.9-11.3c-0.1-1.3-0.8-2.8-1.9-4.5l-3.5-4.1l-2.6-0.2L418.7,224.2
		L418.7,224.2z"/>
	<path class="st0" d="M472.9,230c-1.9-3.1-4.1-5.6-6.8-7.3c-0.9-0.9-2.3-1.2-4.1-1.1l-5.4,1.8l-3.8,2.8c-3.5,5.1-5.8,9.5-7,13.4
		l-2,7.3l-1.7-0.1c-0.9-0.8-1.6-1.2-2.4-1.4l-1.1,0.2v1.8l1.7,6.9l0.6,0.9l0.5,0.5l-0.8,8.6c0.1,1.9,0.8,3.8,2.3,5.6
		c1.3,1.7,3.1,2.6,5.3,2.5c0.9-0.2,1.3-1.2,1.3-3l-0.2-5.9c0-1.5,0.2-2.7,0.5-4c0.3-1.1,0.5-1.8,0.9-2l17.6-2.4l0.1,13.2
		c0.2,2.1,0.5,3.1,1.1,3.5l3.6,0.6l4.7-3.6c1.3-1.6,2.2-4,2.3-6.9v-8.7l-0.8-6.7l-2.1-7.2L472.9,230L472.9,230z M456.2,234.5
		c1-2.1,2.3-3.3,3.6-3.8c1.5-0.5,2.8,0.4,3.9,2.5l2.7,7.4l1.4,6.7l-15.7,0.9c0.1-2.2,0.7-4.4,1.3-7L456.2,234.5L456.2,234.5z"/>
	<path class="st0" d="M492.6,230.8c-1.2,0.9-1.9,1.8-2.3,2.8l-5.1,19.5c-0.9,4.7-1.5,9.4-1.6,13.9c0.2,2.5,1.7,3.9,4.2,4.2
		c1.2,0,2-0.5,2.5-1.3l0.7-2.5l2-11.7c0.6-2.7,1.2-5.1,1.9-7.2c0.7-2,1.2-3,1.9-3.2l1.7,2.6l7.5,17.6l3.8,4.2
		c1.3,0.9,2.9,1.2,4.7,0.9l2.8-1.5c1.3-0.9,2.6-2.5,3.9-5.1c1.2-2.5,2-6.4,2.4-11.5c0.2-5.8-0.2-10.5-1.3-14.3
		c-0.9-3.9-2.2-6.9-3.3-8.9l-2.7-3.9c-0.9-1.1-2-1.8-3.1-2.1c-0.8-0.1-1.6,0.3-1.8,1.2c-0.2,0.6,0.1,1.8,0.5,3.5l2.3,16.5l-0.2,9.7
		l-0.8,0.2c-0.7-0.1-1.7-1.6-3-4.1l-9.7-17.7c-1.6-2.5-3-3.5-4.2-3.4L492.6,230.8L492.6,230.8z"/>
	<path class="st0" d="M525.7,230.5c-0.7,1.1-0.9,2.1-0.7,3c0.3,1.3,0.9,2.1,1.5,2.5l1.7,0.1l0.6-0.7v-1.2c-0.2-0.7,0-1.3,0.7-1.9
		c0.7-0.4,1.5-0.8,2.5-0.9l7.8,0.9c2.7,0.9,5.2,2.1,7.2,3.2l4.5,3c3.7,2.6,6.3,5.5,8.2,8.4c1.9,2.8,3.1,5.6,3.5,7.9
		c0.4,2.5,0.4,4.1-0.3,5.4c-0.7,1.2-1.9,2-3.9,2.6l-7,0.9l-7.8-0.9l0.2-21.3c0-0.9-0.3-1.6-0.9-2.1l-2.7-0.5c-1,0.5-2,1.5-2.6,3.4
		c-0.7,1.7-1.3,3.9-1.7,6.2l-1.2,9.1c-0.2,0.4-0.6,0.3-1.2-0.6l-2-2.3c-0.5-0.7-1.1-0.8-2.1-0.7c-0.8,0.1-1.3,0.6-1.7,1.3l-0.7,2.2
		c-0.5,1.2-0.5,2.6-0.2,4.2c0.3,1.7,1.1,3.3,2.5,4.9l5,3.5c0.3,2,0.8,3.7,1.6,5.2c0.8,1.5,2,2.2,3.8,2l3.2-0.5
		c0.8-0.3,1.5-1.5,1.9-3.5l11.2-1.5c3.5-1.2,6-2.6,7.7-4.2c3.7-3.3,6-6.7,7.3-9.8c1.1-3,1.5-5.9,1-8.4c-0.5-2.5-1.3-4.7-2.4-6.5
		c-2.5-3.9-5.4-7.1-9-9.6c-3.7-2.5-7.5-4.3-11.3-5.5l-10.8-2.2l-7.5,0.8C528.5,228.2,526.4,229.3,525.7,230.5L525.7,230.5z"/>
	<path class="st0" d="M589.9,260.4c-1.3-1.3-3.1-2-5.1-2c-2,0-3.8,0.7-5.1,2c-1.5,1.3-2.2,3.1-2.2,5.1c0,2.2,0.7,3.9,2.2,5.2
		c1.3,1.4,3.1,2.1,5.1,2.2c2-0.1,3.8-0.8,5.1-2.2c1.5-1.3,2.1-3,2.1-5.2C592,263.5,591.4,261.7,589.9,260.4L589.9,260.4z
		 M584.8,259.4c1.7,0,3.1,0.6,4.2,1.8c1,1,1.6,2.5,1.8,4.2c-0.2,1.9-0.8,3.4-1.8,4.5c-1.1,1.1-2.5,1.6-4.2,1.8
		c-1.8-0.2-3.1-0.7-4.2-1.9c-1.2-1-1.8-2.5-1.8-4.4c0-1.7,0.6-3.1,1.6-4.2C581.7,260,583,259.4,584.8,259.4L584.8,259.4z"/>
	<path class="st0" d="M588.2,263.8c0-1.7-0.9-2.5-2.8-2.5H582v8.5h1.3v-3.7h1.3l2.5,3.7h1.3L586,266
		C587.3,266,588.1,265.2,588.2,263.8L588.2,263.8z M586.3,262.6l0.7,1.1l-0.7,1.1l-3,0.2v-2.7h1.8L586.3,262.6L586.3,262.6z"/>
	<path class="st0" d="M564.2,286c-2.5,0-4.7,0.5-6.3,1.4c-1.5,0.9-2.3,2.2-2.3,3.8c0,1.2,0.6,2.5,1.5,3.4l2.1,1.3l5,1.6
		c2.3,0.6,3.2,1.2,3.1,2c0,1.1-1.1,1.6-3.4,1.8l-4.2-0.9l-1.7-0.5l-2-0.9v3.9l2,0.8l6,0.9c2.7,0,4.9-0.5,6.5-1.4
		c1.6-0.9,2.4-2.4,2.4-4c0.2-2.6-2-4.5-6.2-5.8l-1.8-0.5c-2.5-0.8-3.8-1.5-3.8-2.2c0.2-0.9,1.2-1.3,3.5-1.5l6.9,1.6l0.3,0.2v-3.7
		C569.2,286.5,566.6,286,564.2,286L564.2,286z"/>
	<polygon class="st0" points="527,286.2 527,304.4 532.9,304.4 532.9,286.2 	"/>
	<path class="st0" d="M463.4,304.4l-10-18.2h-6.6l-9.2,18.2h6l1.7-3.6h10.1l1.9,3.6H463.4L463.4,304.4z M450.2,290.6l3.6,7h-7
		L450.2,290.6L450.2,290.6z"/>
	<path class="st0" d="M498.4,287.1l-2.3-0.7l-12.5-0.3v18.2h5.8V297h2.5c1.2,0.5,2.2,1.3,3.1,2.8l2.5,4.5h6.1l-2.9-5.1
		c-0.9-1.8-2.1-3-3.2-3.5l1.8-0.9c1.2-0.9,1.9-2,2.1-3.4C501.3,289.6,500.3,288.1,498.4,287.1L498.4,287.1z M489.5,289.5h2.8
		c2.2,0,3.2,0.7,3.2,2c-0.1,1.2-0.9,2-2.5,2.2h-3.5V289.5L489.5,289.5z"/>
	<path class="st0" d="M417.2,287.1l-2-0.7l-12.3-0.2v18.1h5.8v-7.2l6.6-0.2l2.2-0.7c2.2-1,3.2-2.6,3.2-4.7
		C420.6,289.6,419.5,288,417.2,287.1L417.2,287.1z M408.7,289.6h2.1c2.8-0.1,4.2,0.6,4.2,2c0.1,1.5-1.3,2.4-4.3,2.2h-1.9
		L408.7,289.6L408.7,289.6z"/>
	<path class="st0" d="M117.1,170.3l-16.4,1.2c-4.1,0.8-6.7,1.6-7.9,2.4l-3.8,3.4l-2.2,3.8c0.2,1.7,0.9,2.9,2.5,3.3l3.9,0.6l3.1-0.5
		c0.9-0.2,1.3-0.8,1.4-1.6l-0.5-1.3l-1.4-0.5l-2.5,0.4c-1.1,0.1-1.7-0.3-1.8-1.2c0.1-0.7,1-1,3-1.5l16.8-1.3
		c13.4,0.2,26,2.2,37.3,6.2c11.6,3.9,21.6,9,30.4,15.3c8.7,6.2,15.4,12.8,20.3,19.7c4.8,6.8,7.2,13.2,7.4,19.3
		c0,4.7-1.3,9.2-4.1,13.2c-2.6,4.1-6.7,7.3-11.9,9.6c-5.4,2.5-12,3.8-19.9,4c-7.7-0.2-14.9-1.1-21.9-2.8l-0.5-29.5l15.6,0.8
		l10.9,2.3c3,0.9,4.6,1.9,4.8,3.1c-0.2,1.8-0.9,2.9-2.3,3.9l-3.4,1.8c-0.6,0.3-0.7,0.6-0.3,0.9l1.1,0.8l3.5,0.9
		c1.3,0,2.8-0.5,4.2-1.2c1.5-0.9,2.8-1.9,4.1-3.4c1.2-1.4,1.7-2.9,1.7-4.7c0-2.5-1.1-5.1-3.6-7.4c-2.4-2.4-6-4.4-11.1-5.9
		c-4.9-1.5-11.1-2.4-18.6-2.5l-6.7,0.3l0.2-9.8c0.1-2.5-0.2-5-1-7.3c-0.9-2.4-1.6-4.1-2.6-5.1c-0.8-0.9-1.6-1.4-2.3-1.3
		c-0.8,0.1-1.5,0.8-2.1,2.2l-2.6,13.4l-0.4,9.2l-14.6,3.1c-4.7,1.3-8.6,2.9-11.7,4.9c-3,2.1-4.8,4.3-4.9,6.9c0.1,2.8,1.4,6,4.1,9.2
		c2.8,3.2,6.4,6.4,11.1,9.6c4.5,3.1,9.6,6,15.3,8.6l0.3,4.3c0,1.6,0.4,3.2,1,4.8c0.7,1.8,2.5,2.7,5.4,2.8c1.9-0.1,3.1-0.9,4-2.2
		s1.2-2.9,1.4-4.9c7.2,2.3,14.1,3.5,20.7,3.6c8.1,0,16-1.5,23.3-4.4s13.6-7.1,18.2-12.6c4.9-5.3,7.5-11.8,7.6-19.2
		c-0.1-7.5-3.2-15.2-9.2-23.1c-5.8-7.7-13.7-15-23.4-21.7c-9.8-6.7-20.7-12-32.7-16.2C141.5,172.5,129.4,170.4,117.1,170.3
		L117.1,170.3z M110.3,237.9c0.2-1.1,1.5-2.3,4.1-2.9l10-1.7l12.9-0.7l-0.6,25.3c-7.9-3-14.3-6.5-19.1-10.3
		C112.8,243.8,110.5,240.6,110.3,237.9L110.3,237.9z"/>
	<path class="st0" d="M224.5,185.3c-3.9,2.6-7,5.9-9.4,9.9c-0.9,2.1-1.2,4.4-1.1,7.2c0.2,2.6,1.2,4.9,3.3,6.7
		c-0.9,1.2-1.1,2.5-0.8,4l1.1,3c1,0.4,1.9,0.4,2.4,0l1.4-1.8l1.9-1.9c6.4,1.8,12.5,1.4,18.2-1.2l9-5.9c3-2.5,5.3-4.8,6.9-7.4
		c1.7-2.6,2.2-4.8,1.2-6.9c-1.2-2.3-2.5-3.6-3.8-4.2l-3.7-0.9h-2c-1.2-4.7-5.4-6.6-12.2-5.7C232.6,181,228.5,182.7,224.5,185.3
		L224.5,185.3z M218.9,200.6c-0.3-0.9,0.2-2.3,1.4-3.9l4.1-4.1c1.8-1.4,3.7-2.6,5.4-3.2l3.7,0.2l-6.6,5.3l-6.8,7.8
		C219.6,202.4,219,201.5,218.9,200.6L218.9,200.6z M242.9,204.5l-3.8,1.4l-6.4,1.1c-2.3,0.2-4.4-0.1-6.3-0.9l7.6-7.7
		c2.8-2.9,5.7-5.2,8.8-6.9l8.4-0.1c1.5,1,2.1,2.4,1.5,4.1c-0.6,1.8-1.5,3.2-2.9,4.5c-1.4,1.2-2.7,2.2-4,2.8L242.9,204.5L242.9,204.5
		z"/>
	<path class="st0" d="M227.7,222.5l-1.7,1.9l-2.1,19.4c-0.4,7-0.4,14,0.3,21l1.1,1.8l2.9,1.1l2.7-0.2c1.4-0.7,2.3-1.6,2.6-2.5
		l0.2-1.4l-1-35c-0.6-2.7-1.3-4.4-2.3-5.3C229.5,222.4,228.7,222.1,227.7,222.5L227.7,222.5z"/>
	<path class="st0" d="M250.3,236.3c-2-0.7-3-1.1-3.2-1.6c-0.1-0.4,0.2-0.9,1.1-1.4l6.4-1.2l24.5-1.5l2.9-0.8l2.6-1.6
		c0.8-0.7,0.9-1.8,0.6-3.1c-0.3-0.7-1.2-1.2-2.9-1.6l-17.6-1l-9.2,0.7c-3.2,0.4-6.2,1.1-9,2.3c-2.8,1.2-4.9,2.8-6.3,4.8l-1.8,4.7
		c-0.4,1.7,0.3,3.8,1.8,5.9c2,1.4,4.6,2.2,8,2.4l10.4,0.4c3.6,0.1,7.1,0.9,10.4,2.2l4.1,1.4l3.7,2.1c0.9,0.9,1,2,0.5,3.5
		c-0.8,1.4-2.8,2.6-5.9,3.7l-11.3,2.1l-12.2-0.9l-2.6-1.5c-0.7-0.7-0.9-1.7-0.6-3c1.2-2.1,2.8-2.8,4.5-2.5c1.8,0.1,3.5,0.8,5.3,1.7
		l4.4,2.3l5.5,0.2l5.4-1.5c1.5-0.7,2.3-1.3,2.2-2c-0.5-0.9-2.2-2-5-3.1c-2.9-1-6.1-1.9-9.8-2.4l-9.4,0.3c-3.1,0.9-5.3,2-6.2,3.4
		c-0.9,1.5-1.3,3.1-1.4,5c0.3,3.1,1.4,5.5,3.8,7.4c2.1,2.1,4.5,3.4,7.4,4.3l7.4,1.7l9.2-0.4c3.2-0.4,6.2-1.2,8.8-2.5
		c2.5-1.1,4.3-2.5,5.3-4.2c1.2-2.3,1.8-4.8,1.9-7.4c0.2-2.7,0-5-0.7-6.7c-1.4-2.5-3.8-4.6-6.5-5.9l-9.5-2.5L250.3,236.3L250.3,236.3
		z"/>
	<path class="st0" d="M304.7,235.8L298,227c-1.3-1.1-2.6-1.4-3.9-0.9c-1.5,0.9-2.5,3-3.5,6l-2.6,21.6l-0.3,9.1
		c0.1,2,0.4,3.3,0.8,3.9c1.6,1.4,2.8,1.9,3.8,1.4l2.3-1.7c0.5-0.4,0.7-1.9,0.8-4.4l0.8-17.6c0.3-2.5,0.7-3.9,1.1-4.1
		c0.9,0,1.9,1,2.8,3.1l7.2,15.6c1.5,2.5,3.2,4.4,5,5.7c1.2,0.8,2.6,1,4.2,0.9c1.7-0.1,3.3-1.4,5-3.9c2.5-3.8,3.8-7.6,4.1-11.8
		c0.1-4-0.2-7.7-0.9-11l-1.9-7.6c-0.7-2.6-1.9-5.2-3.6-7.7l-5-6c-1.7-1.4-2.9-1.9-3.6-1.4c-0.9,0.7-0.9,2-0.3,4l2.5,7.5
		c0.9,2.9,1.8,6.3,2.2,9.9l0.9,11.6c0,2-0.3,3-0.9,3.3l-3.1-3.5L304.7,235.8L304.7,235.8z"/>
</g>
</svg>
