<?xml version="1.0" encoding="utf-8"?>
<!-- Generator: Adobe Illustrator 19.0.0, SVG Export Plug-In . SVG Version: 6.00 Build 0)  -->
<svg version="1.1" id="layer" xmlns="http://www.w3.org/2000/svg" xmlns:xlink="http://www.w3.org/1999/xlink" x="0px" y="0px"
	 viewBox="-153 -46 652 652" style="enable-background:new -153 -46 652 652;" xml:space="preserve">
<style type="text/css">
	.st0{fill:#E64C53;}
	.st1{fill:#706F6F;}
</style>
<path id="XMLID_1_" class="st0" d="M-109.3,216.7v52.7c0,10.4,1.3,19.7,4.8,28.6h-26.3c3.5-8.8,4.8-18.1,4.8-28.6v-52.7
	c0-10.4-1.3-19.7-4.8-28.6h26.3C-108,197-109.3,206.3-109.3,216.7 M-62.6,297.9c-3.5-8.8-4.6-18.1-4.6-28.6v-46.9l46.4,64
	c2.3,3.2,3.8,7.1,4.4,11.5H6c-1.9-7.7-2.5-16.7-2.5-27.3v-54c0-10.4,1.3-19.7,4.8-28.6h-24.5c3.5,8.9,4.6,18.1,4.6,28.6v54.7
	l-50.1-69.8c-2.9-4.1-5.8-7.4-5.8-12.8v-0.7h-28l13.1,15.8v65.4c0,10.4-1.3,19.7-4.8,28.6H-62.6 M46.5,297.9
	c-3.5-8.8-4.8-18.1-4.8-28.6v-21.8c11.2,0.4,19.9,1.9,26.5,5.4l9.9-16H41.7v-37.9h3.5c12.2,0,21.8,2,29,6.7l8.6-17.7H20.3
	c3.5,8.9,4.8,18.1,4.8,28.6v52.7c0,10.4-1.3,19.7-4.8,28.6H46.5 M177,284.6c11.6-10.4,17.8-25.2,17.8-42.2
	c0-16.2-5.9-30.3-16.8-40.8c-10-9.4-22.6-14.5-37.4-14.5c-17.7,0-33.5,7.1-44.4,19.7c-8.4,9.9-12.8,21.8-12.8,35.7
	c0,18.1,7,33.5,19.4,43.7c10.5,8.4,22.9,12.8,36.3,12.8C153.5,299,166.6,294,177,284.6 M176.6,246.6c0,23.4-15.1,39.2-35.5,39.2
	c-12,0-22.9-5.8-29.9-16.1c-5.8-8.6-8.8-18.4-8.8-29.3c0-23.8,14.9-40.2,35.4-40.2c12.8,0,23.8,6.4,31.3,18.3
	C173.8,226,176.6,235.7,176.6,246.6"/>
<polygon id="XMLID_12_" class="st1" points="189.3,289.7 189.4,289.5 189.4,289.6 "/>
<path id="XMLID_13_" class="st1" d="M252.9,192.2c11.9,6.1,17.7,15.4,17.7,28.4c0,20-12.6,32.3-34.7,32.3c-3.3,0-6.8-0.3-10.6-0.9
	v17.3c0,10.4,1.3,19.7,4.8,28.6h-26.2c3.5-8.8,4.8-18.1,4.8-28.6v-52.7c0-10.4-1.3-19.7-4.8-28.6h21
	C238.7,188.1,248.1,189.7,252.9,192.2 M251.6,223.1c0-17-7.8-24.7-24.8-24.7h-1.5v49C242.5,246.9,251.6,238.3,251.6,223.1
	 M304.7,297.9h-26.3c3.5-8.8,4.8-18.1,4.8-28.6v-52.7c0-10.4-1.3-19.7-4.8-28.6h18.3c31.2,0,46.6,10.3,46.6,32.1
	c0,12.8-7.7,22.3-22.3,27.4c10.9,17.8,23.6,34.7,38.4,50.3h-16.3c-4.6,0-20-16.5-43.2-50.6v22.1
	C299.9,279.8,301.2,289.1,304.7,297.9 M299.9,243.5c16.5-2.2,25.8-11,25.8-23.5c0-12.9-9.6-21.5-25.8-21.6V243.5z M450.3,284.6
	c-10.4,9.4-23.5,14.4-37.9,14.4c-13.4,0-25.8-4.4-36.3-12.8c-12.5-10.2-19.4-25.5-19.4-43.7c0-13.9,4.4-25.8,12.8-35.7
	c10.9-12.6,26.7-19.7,44.4-19.7c14.8,0,27.4,5.1,37.4,14.5c10.9,10.4,16.8,24.5,16.8,40.8C468.1,259.4,461.9,274.2,450.3,284.6
	 M449.9,246.6c0-10.9-2.8-20.6-7.5-28.1c-7.5-11.9-18.6-18.3-31.3-18.3c-20.5,0-35.4,16.4-35.4,40.2c0,10.9,3,20.7,8.8,29.3
	c7,10.3,17.8,16.1,29.9,16.1C434.8,285.8,449.9,269.9,449.9,246.6 M105.8,310.3c0.6,0.2,1.2,0.3,1.7,0.3c0.9,0,1.8-0.3,2.7-0.9
	c0.6-0.5,1.1-1,1.4-1.7c0.3-0.7,0.4-1.4,0.4-2c0-1.5-0.6-2.7-1.8-3.6h-0.1c-0.8-0.5-1.7-0.8-2.7-0.8c-1,0-1.9,0.3-2.7,0.8
	c-0.7,0.5-1.2,1.1-1.5,1.7c-0.3,0.7-0.5,1.3-0.5,1.9c0,1.2,0.4,2.2,1.3,3.2C104.7,309.8,105.2,310.1,105.8,310.3 M148,314.2
	L148,314.2c-0.6-0.3-1.3-0.6-2-0.7c-0.7-0.1-1.4-0.1-2.1-0.1c-1.4,0-2.8,0.2-4.3,0.7c-1.5,0.5-2.9,1.1-4.3,1.8
	c-1.4,0.8-2.7,1.6-3.9,2.6c-1.2,1-2.3,2-3.2,3c-1.5,1.6-2.7,3.4-3.8,5.3c-0.8,1.5-1.3,3-1.5,4.5l-0.6-1.1c-0.5-0.6-1.3-0.9-2.4-0.9
	h-0.1c-1.1,0-2.4,0.3-4,0.8c-1.6,0.5-3.1,1.1-4.7,1.8c-0.9,0.4-1.8,0.7-2.7,1c-0.9,0.3-1.6,0.5-2.3,0.6l-0.7,0.1h-0.5
	c-0.9,0-1.4-0.5-1.7-1.4c-0.2-0.7-0.3-1.6-0.3-2.9v-1.1c0.1-1.5,0.4-2.9,0.9-4.5c0.5-1.5,1-2.7,1.5-3.6l0.2-1.1c0-0.5-0.2-1-0.5-1.4
	c-0.4-0.4-0.9-0.8-1.5-1c-0.5-0.2-1-0.3-1.4-0.3c-0.8,0-1.5,0.2-2.2,0.7c-0.4,0.4-0.7,0.9-1.1,1.6c-0.4,0.7-0.7,1.3-0.9,1.8
	l-0.1,0.4l0,0.4l0.3,0.9c-0.3,0.9-0.5,1.9-0.7,2.9c-0.2,1-0.4,2-0.4,3.1l-0.1,1.1c0,0.4,0,0.8,0,1.3c0,0.7,0,1.4,0.1,2
	c0.1,0.7,0.2,1.2,0.3,1.7c0.6,2,1.4,3.5,2.5,4.5c1,0.9,2.5,1.4,4.3,1.4c1,0,2.3-0.2,3.7-0.5c0.9-0.2,1.9-0.5,3-0.9
	c1.1-0.4,2.2-0.8,3.4-1.2c1.2-0.5,2.4-0.9,3.5-1.3c1.1-0.3,2-0.6,2.7-0.7c1.1-0.1,1.8-0.5,2.3-1.1l0.4-0.7c0.1,1.4,0.5,2.5,1.3,3.3
	c0.9,1,2.2,1.5,3.7,1.5c0.7,0,1.5-0.1,2.3-0.3c0.8-0.2,1.6-0.6,2.5-1.1h-0.1c0.5-0.2,0.9-0.5,1.3-0.7c1-0.5,2-1,2.9-1.5
	c1-0.5,1.7-0.9,2.4-1.2l0.5-0.1l0.4,0.5l0,0.3l0,0.3c0.2,1,0.3,1.9,0.4,2.9c0.1,1,0.1,2,0.1,3.1c0,0.8,0,1.6-0.1,2.4
	c-0.1,0.8-0.2,1.8-0.4,2.8c-0.5,2.1-1.2,4-2.3,5.8c-1.1,1.8-2.8,3.4-5,4.8c-1,0.8-1.6,1.7-1.6,2.7l0.2,0.9l0.4,0.8
	c0.3,0.4,0.7,0.8,1.2,1.1c0.5,0.3,1,0.5,1.6,0.5c0.5,0,1.1-0.2,1.7-0.5l-0.1,0.1c2.9-1.8,5.1-4,6.7-6.5c1.6-2.5,2.7-5.2,3.4-8.1
	c0.3-1.1,0.5-2.3,0.6-3.5c0.1-1.2,0.2-2.5,0.2-3.8c0-1.3-0.1-2.5-0.2-3.7c-0.1-1.2-0.2-2.4-0.4-3.4c-0.2-1-0.3-1.9-0.5-2.7
	c-0.2-0.8-0.4-1.3-0.6-1.7c-0.4-0.8-0.9-1.3-1.5-1.6c-0.6-0.3-1.3-0.5-2.1-0.5h-0.9l-0.7,0.1c-0.7,0.2-1.4,0.5-2.2,0.9
	c-0.8,0.3-1.5,0.7-2.3,1.1c-0.8,0.4-1.5,0.8-2.3,1.3c-0.7,0.5-1.4,0.9-2.1,1.2c-0.5,0.3-1,0.4-1.2,0.4l-0.2-0.3v-0.3
	c0.1-0.7,0.4-1.5,1-2.4c0.5-0.9,1.1-1.8,1.8-2.5h-0.1c0.8-0.8,1.7-1.6,2.7-2.3c1-0.7,2-1.4,3-1.9c1-0.5,2-1,3-1.3
	c1-0.3,1.8-0.5,2.6-0.5c0.6,0,1.1,0.1,1.4,0.3h-0.1c0.5,0.3,1,0.5,1.5,0.5c0.8,0,1.5-0.3,2.1-1c0.6-0.7,0.9-1.4,0.9-2.4
	c0-0.5-0.1-1-0.4-1.6C149,315,148.6,314.5,148,314.2 M167,310.3c0.6,0.2,1.2,0.3,1.7,0.3c0.9,0,1.7-0.3,2.7-0.9
	c0.6-0.5,1.1-1,1.4-1.7c0.3-0.7,0.5-1.4,0.5-2c0-1.5-0.6-2.7-1.8-3.6h-0.1c-0.8-0.5-1.7-0.8-2.7-0.8c-1,0-1.9,0.3-2.7,0.8
	c-0.7,0.5-1.2,1.1-1.5,1.7c-0.3,0.7-0.5,1.3-0.5,1.9c0,1.2,0.4,2.2,1.3,3.2C165.8,309.8,166.4,310.1,167,310.3 M181,329.3h-0.1
	c-1.1,0-2.4,0.3-4,0.8c-1.6,0.5-3.1,1.1-4.7,1.8c-0.9,0.4-1.8,0.7-2.7,1c-0.9,0.3-1.6,0.5-2.3,0.6l-0.7,0.1h-0.5
	c-0.9,0-1.4-0.5-1.7-1.4c-0.2-0.7-0.3-1.6-0.3-2.9v-1.1c0.1-1.5,0.4-2.9,0.9-4.5c0.5-1.5,1-2.7,1.5-3.6l0.2-1.1c0-0.5-0.2-1-0.5-1.4
	c-0.4-0.4-0.9-0.8-1.5-1c-0.5-0.2-1-0.3-1.4-0.3c-0.8,0-1.5,0.2-2.2,0.7c-0.4,0.4-0.7,0.9-1.1,1.6c-0.4,0.7-0.7,1.3-0.9,1.8
	l-0.1,0.4l0,0.4l0.3,0.9c-0.3,0.9-0.5,1.9-0.7,2.9c-0.2,1-0.4,2-0.4,3.1l-0.1,1.1c0,0.4,0,0.8,0,1.3c0,0.7,0,1.4,0.1,2
	c0.1,0.7,0.2,1.2,0.3,1.7c0.6,2,1.4,3.5,2.5,4.5c1,0.9,2.5,1.4,4.3,1.4c1,0,2.3-0.2,3.7-0.5c0.9-0.2,1.9-0.5,3-0.9
	c1.1-0.4,2.2-0.8,3.4-1.2c1.2-0.5,2.4-0.9,3.5-1.3c1.1-0.3,2-0.6,2.7-0.7c1.1-0.1,1.8-0.5,2.3-1.1c0.4-0.6,0.6-1.2,0.6-1.9v-0.1
	c0-0.8-0.3-1.5-0.9-2.2C182.8,329.6,182,329.3,181,329.3 M202,316.7c-0.8-0.4-2.1-0.6-3.6-0.7c-1.2-0.1-2.4-0.2-3.7-0.2
	c-1.3-0.1-2.3-0.1-3.1-0.1c0-1.5,0.1-3.3,0.3-5.2c0.2-1.9,0.4-3.8,0.7-5.8c0.3-1.9,0.6-3.8,0.9-5.6c0.3-1.8,0.7-3.4,1.1-4.8l0.1-0.1
	l0.5-1.1c0.1-0.3,0.2-0.8,0.2-1.3v-0.2c0-0.8-0.2-1.4-0.5-1.9c-0.3-0.5-0.8-1-1.3-1.3l0.1,0.1c-0.6-0.4-1.1-0.5-1.6-0.5
	c-1.1,0-2,0.6-2.5,1.7l-0.1,0.2l-0.3,0.5l-0.1,0.6l-0.1,0.2l-0.3,0.4c-0.5,0.8-0.9,1.5-1,1.9l0.1-0.1l-0.1,0.7c0,0.5,0.1,0.8,0.3,1
	c-0.4,1.6-0.7,3.4-1,5.2c-0.3,1.8-0.5,3.7-0.7,5.5c-0.2,1.8-0.4,3.6-0.6,5.3c-0.1,1.7-0.2,3.2-0.2,4.6l-1.2,0.1H183h-1.8
	c-1,0.1-1.8,0.5-2.3,1.2c-0.5,0.6-0.7,1.3-0.7,2.1c0,0.8,0.2,1.5,0.7,2.1c0.5,0.6,1.2,0.9,2.2,0.9h4.2c0,2.8,0.1,5.5,0.4,8
	c0.3,2.5,0.7,4.7,1.2,6.6c0.2,1,0.6,1.6,1.3,2c0.6,0.4,1.3,0.6,1.9,0.6h0.3l0.5-0.1l-0.1,0.1c0.6-0.1,1.2-0.5,1.6-1
	c0.4-0.5,0.6-1.2,0.6-1.9V336l-0.1-0.5l0.1,0.1c-0.2-0.8-0.4-1.8-0.6-2.8c-0.2-1.1-0.3-2.2-0.5-3.4c-0.1-1.2-0.2-2.4-0.3-3.7
	c-0.1-1.3-0.1-2.5-0.1-3.7c0.9,0,1.8,0,2.8,0c0.9,0,1.8,0.1,2.6,0.1c0.7,0,1.3,0.1,1.9,0.1c0.6,0,1.1,0,1.5,0c1,0,1.8-0.4,2.3-1
	c0.5-0.6,0.7-1.3,0.7-2C203.3,318,202.9,317.1,202,316.7 M246,330.9c-0.6-0.7-1.4-1.1-2.3-1.1c-0.5,0-0.9,0.1-1.5,0.4
	c-0.5,0.3-1.1,0.5-1.8,0.8c-0.7,0.3-1.4,0.5-2.2,0.8c-0.7,0.2-1.5,0.5-2.2,0.7c-0.7,0.2-1.4,0.3-1.9,0.4h-0.3
	c-0.5,0-0.9-0.1-1.2-0.3c-0.3-0.2-0.6-0.7-0.8-1.3c-0.1-0.3-0.2-0.7-0.3-1.2c0-0.5-0.1-1.1-0.1-1.7v-1c0-1.1-0.3-2-0.9-2.5
	c-0.6-0.5-1.3-0.8-2.3-0.8c-1.1,0-2.2,0.4-3.4,1.1v-0.1c-0.7,0.5-1.6,1-2.5,1.7c-0.9,0.7-1.9,1.4-2.9,2.2c-1,0.8-1.9,1.6-2.9,2.3
	c-0.9,0.8-1.8,1.5-2.5,2.1l-0.8,0.6c-0.5,0.4-0.9,0.6-1.2,0.6l-0.1-0.1l-0.1-0.5l0.1-1l0.3-0.9c0.5-1,1.1-2,1.9-3
	c0.8-1.1,1.7-2.1,2.6-3.1c0.9-1,1.9-1.9,2.8-2.7c1-0.8,1.8-1.5,2.7-2c1.7-1.2,3.2-1.8,4.5-1.8l1.2,0.2l1.1,0.6
	c0.6,0.4,1.2,0.6,1.9,0.6c0.6,0,1.2-0.1,1.7-0.4c0.5-0.3,0.9-0.7,1.3-1.2c0.3-0.5,0.4-1,0.4-1.6l-0.3-1.2c-0.2-0.4-0.5-0.8-0.9-1.2
	c-1-0.8-1.9-1.3-2.8-1.7c-0.9-0.3-1.8-0.5-2.8-0.5c-1.7,0-3.3,0.4-4.8,1.2c-1.5,0.8-2.8,1.5-3.9,2.2c-1,0.6-2,1.4-3.1,2.3
	c-1.1,0.9-2.2,1.9-3.3,3s-2.1,2.3-3.1,3.6c-1,1.3-1.8,2.6-2.5,4c-1,1.8-1.5,3.7-1.6,5.8c0,2.2,0.6,3.9,1.9,5c1,0.9,2.2,1.3,3.6,1.3
	c1.7,0,3.5-0.7,5.5-2.1c0.6-0.5,1.1-0.9,1.7-1.4c0.6-0.5,1.2-1,1.8-1.5c1-0.9,1.9-1.7,2.8-2.4c0.9-0.7,1.6-1.3,2.2-1.7l0.4-0.2
	c0,0.7,0.1,1.4,0.4,2.3c0.3,0.8,0.6,1.5,0.9,1.9v-0.1c0.7,1,1.5,1.8,2.4,2.3c0.9,0.5,2.1,0.7,3.6,0.7h0.8l1-0.1
	c1.7-0.2,3.5-0.6,5.5-1.3c2-0.7,3.7-1.5,5.2-2.3c0.5-0.3,0.9-0.7,1.2-1.2c0.3-0.5,0.4-1,0.4-1.6C246.7,332.1,246.5,331.5,246,330.9
	L246,330.9z M465.2,331.6H277.4c-12.9,0-17.2,1-19.3,1c-2.1,0-2.4-0.8-2.7-0.9c1.4-1.5,2.8-3.2,4.2-5.2c1.4-2,2.7-4.1,3.7-6.5
	c0.9-2,1.6-4.4,2.1-7c0.5-2.6,0.7-5.1,0.7-7.4v-0.9l-0.1-0.9c-0.2-3.2-0.7-5.6-1.7-7.2c-1-1.6-2.2-2.5-3.7-2.7l0.1,0.1l-0.8-0.1
	c-1.2,0-2.5,0.5-3.9,1.5c-1.4,1-2.7,2.5-4,4.4c-0.8,1.2-1.6,2.6-2.4,4.2c-0.8,1.6-1.4,3.4-2,5.2c-0.6,1.9-1.1,3.8-1.4,5.8
	c-0.4,2-0.5,3.9-0.5,5.9v0.5c0,2.1,0.1,4.1,0.4,5.9c0.2,1.8,0.7,3.4,1.2,4.8c0.6,1.4,1.3,2.7,2.3,3.7c1,1,2.1,1.9,3.5,2.5
	c1.6,0.6,3.4,0.9,5.4,0.9c1.3,0,6.6-1.3,18.9-1.3h187.9C469.8,337.9,469.8,331.6,465.2,331.6 M252.2,326.3c-0.3-1.2-0.5-2.6-0.5-4.2
	v-0.7c0-1.6,0.2-3.2,0.6-4.9c0.3-1.7,0.7-3.2,1.2-4.8c0.5-1.5,1-2.9,1.5-4.2c0.6-1.3,1.1-2.4,1.7-3.2c0.5-0.8,0.9-1.3,1.3-1.7
	l0.9-0.5c0.4,0.2,0.7,1.3,0.8,3.2v0.9c0,0.9-0.1,2-0.2,3.1c-0.1,1.1-0.3,2.2-0.5,3.3c-0.2,1.1-0.4,2.1-0.6,3
	c-0.2,0.9-0.5,1.7-0.8,2.3c-0.6,1.5-1.4,3-2.4,4.4C254.3,323.7,253.3,325,252.2,326.3 M86.5,309.3c-0.3-3.1-0.6-6.1-1-8.9
	c-0.3-2.8-0.6-5.2-0.9-7.2c-0.1-1-0.5-1.8-1.1-2.3c-0.6-0.5-1.2-0.8-1.9-0.8h-0.3l-0.5,0.1l0.1-0.1c-0.7,0.1-1.3,0.5-1.8,1
	c-0.5,0.5-0.8,1.3-0.8,2.2v0.3l0.1,0.5l-0.1-0.1c0.2,1.6,0.5,3.5,0.7,5.5c0.2,2,0.5,4.2,0.7,6.4c0.2,2.2,0.4,4.5,0.6,6.8
	c0.2,2.3,0.4,4.6,0.6,6.8c-1-0.8-2.1-1.5-3.4-2.2c-1.2-0.7-2.8-1.1-4.6-1.1c-1.3,0-2.7,0.3-4.2,0.8c-1.5,0.5-2.9,1.2-4.3,2
	c-1.4,0.8-2.8,1.7-4,2.7c-1.2,1-2.2,1.9-3.1,2.8c-1.8,2.1-2.8,4.1-2.8,6h-182.6c-4.6,0-4.6,6.2,0,6.2H57.6c1.4,1.2,3.4,2.2,5.9,2.8
	c0.9,0.2,2,0.4,3.4,0.6c1.3,0.2,2.8,0.2,4.4,0.2c1.6,0,3.3-0.1,5-0.3c1.8-0.2,3.6-0.7,5.5-1.4c0.9-0.3,1.5-0.7,1.9-1.2
	c0.4-0.5,0.5-1,0.5-1.6c0-0.5-0.1-0.9-0.2-1.3c-0.3-0.6-0.7-1.1-1.2-1.4c-0.5-0.4-1.1-0.5-1.8-0.5h-0.4c-1.7,0.5-3.3,0.9-5,1.2
	c-1.6,0.3-3.2,0.4-4.6,0.4c-1.3,0-2.4-0.1-3.5-0.2c-1.1-0.2-1.9-0.3-2.6-0.5c-1.2-0.4-2-0.8-2.6-1.2c-0.5-0.4-0.8-0.9-0.9-1.4
	l0.3-1.2l0.9-1.3c0.7-0.7,1.5-1.4,2.3-2s1.8-1.3,2.7-1.8c0.9-0.5,1.8-0.9,2.7-1.3c0.9-0.3,1.7-0.5,2.5-0.5c0.9,0,1.7,0.2,2.5,0.6
	c0.8,0.4,1.5,0.9,2.2,1.5c0.7,0.6,1.4,1.3,1.9,2.1c0.6,0.8,1.1,1.5,1.6,2.3l-0.1-0.1c0.4,0.8,0.9,1.3,1.5,1.6
	c0.6,0.3,1.2,0.5,1.9,0.5c0.9,0,1.7-0.3,2.4-1c0.7-0.7,1-1.6,1-3v-0.5c-0.1-2.4-0.3-5.1-0.6-8.2C87.1,315.4,86.9,312.3,86.5,309.3"
	/>
</svg>
